<svg width="379" height="354" viewBox="0 0 379 354" fill="none" xmlns="http://www.w3.org/2000/svg">
<g filter="url(#filter0_ddd)">
<rect x="14" y="58" width="308" height="65" rx="4" fill="#121212"/>
<rect x="14" y="58" width="308" height="65" rx="4" fill="white" fill-opacity="0.05"/>
</g>
<g filter="url(#filter1_ddd)">
<rect x="14" y="58" width="308" height="65" rx="4" fill="white" fill-opacity="0.12"/>
</g>
<path d="M29 95H41V93H29V95ZM29 83V85H47V83H29ZM29 90H47V88H29V90Z" fill="#03DAC5" fill-opacity="0.8"/>
<path d="M72.4347 98H75.0696V93.0852H77.8537C81.2131 93.0852 83.017 91.0682 83.017 88.2699C83.017 85.4929 81.2344 83.4545 77.8892 83.4545H72.4347V98ZM75.0696 90.919V85.6562H77.4844C79.4588 85.6562 80.3324 86.7216 80.3324 88.2699C80.3324 89.8182 79.4588 90.919 77.4986 90.919H75.0696ZM88.286 98.2202C89.9977 98.2202 91.0204 97.4176 91.4891 96.5014H91.5744V98H94.046V90.6989C94.046 87.8153 91.6951 86.9489 89.6141 86.9489C87.3201 86.9489 85.5587 87.9716 84.9906 89.9602L87.3911 90.3011C87.6468 89.5554 88.3712 88.9162 89.6283 88.9162C90.8215 88.9162 91.4749 89.527 91.4749 90.5994V90.642C91.4749 91.3807 90.7008 91.4162 88.7761 91.6222C86.6596 91.8494 84.6354 92.4815 84.6354 94.9389C84.6354 97.0838 86.205 98.2202 88.286 98.2202ZM88.9536 96.331C87.8812 96.331 87.1141 95.8409 87.1141 94.8963C87.1141 93.9091 87.9735 93.4972 89.1241 93.3338C89.7988 93.2415 91.1482 93.071 91.482 92.8011V94.0866C91.482 95.3011 90.5019 96.331 88.9536 96.331ZM105.403 89.9744C105.048 88.1278 103.571 86.9489 101.014 86.9489C98.3863 86.9489 96.5965 88.2415 96.6036 90.2585C96.5965 91.8494 97.5766 92.9006 99.6718 93.3338L101.533 93.7244C102.534 93.9446 103.003 94.3494 103.003 94.9673C103.003 95.7131 102.193 96.2741 100.972 96.2741C99.7925 96.2741 99.0255 95.7628 98.8053 94.7827L96.2982 95.0241C96.6178 97.027 98.3011 98.2131 100.979 98.2131C103.706 98.2131 105.631 96.7997 105.638 94.733C105.631 93.1776 104.629 92.2259 102.57 91.7784L100.709 91.3807C99.6008 91.1321 99.1604 90.7486 99.1675 90.1165C99.1604 89.3778 99.9772 88.8665 101.05 88.8665C102.236 88.8665 102.861 89.5128 103.06 90.2301L105.403 89.9744ZM113.355 87.0909H111.203V84.4773H108.632V87.0909H107.084V89.0795H108.632V95.1449C108.618 97.1974 110.109 98.206 112.041 98.1491C112.773 98.1278 113.277 97.9858 113.554 97.8935L113.121 95.8835C112.979 95.919 112.688 95.983 112.368 95.983C111.722 95.983 111.203 95.7557 111.203 94.7188V89.0795H113.355V87.0909ZM120.368 98.2131C122.91 98.2131 124.658 96.9702 125.112 95.0739L122.712 94.804C122.363 95.7273 121.511 96.2102 120.403 96.2102C118.741 96.2102 117.64 95.1165 117.619 93.2486H125.219V92.4602C125.219 88.6321 122.917 86.9489 120.233 86.9489C117.108 86.9489 115.069 89.2429 115.069 92.6094C115.069 96.0327 117.079 98.2131 120.368 98.2131ZM117.626 91.5156C117.704 90.1236 118.734 88.9517 120.268 88.9517C121.746 88.9517 122.74 90.0312 122.754 91.5156H117.626ZM137.413 98.2131C140.609 98.2131 142.64 95.9616 142.64 92.5881C142.64 89.2074 140.609 86.9489 137.413 86.9489C134.217 86.9489 132.186 89.2074 132.186 92.5881C132.186 95.9616 134.217 98.2131 137.413 98.2131ZM137.427 96.1534C135.659 96.1534 134.792 94.5767 134.792 92.581C134.792 90.5852 135.659 88.9872 137.427 88.9872C139.167 88.9872 140.034 90.5852 140.034 92.581C140.034 94.5767 139.167 96.1534 137.427 96.1534ZM144.973 98H147.544V91.5866C147.544 90.2017 148.588 89.2216 150.001 89.2216C150.434 89.2216 150.974 89.2997 151.194 89.3707V87.0057C150.96 86.9631 150.555 86.9347 150.271 86.9347C149.021 86.9347 147.977 87.6449 147.579 88.9091H147.465V87.0909H144.973V98ZM163.689 87.0909H161.423V86.2315C161.423 85.3793 161.778 84.9034 162.737 84.9034C163.142 84.9034 163.483 84.9957 163.696 85.0597L164.214 83.071C163.881 82.9574 163.149 82.7727 162.261 82.7727C160.365 82.7727 158.852 83.8594 158.852 86.0611V87.0909H157.24V89.0795H158.852V98H161.423V89.0795H163.689V87.0909ZM170.272 98.2131C172.814 98.2131 174.561 96.9702 175.016 95.0739L172.615 94.804C172.267 95.7273 171.415 96.2102 170.307 96.2102C168.645 96.2102 167.544 95.1165 167.523 93.2486H175.123V92.4602C175.123 88.6321 172.821 86.9489 170.137 86.9489C167.012 86.9489 164.973 89.2429 164.973 92.6094C164.973 96.0327 166.983 98.2131 170.272 98.2131ZM167.53 91.5156C167.608 90.1236 168.638 88.9517 170.172 88.9517C171.65 88.9517 172.644 90.0312 172.658 91.5156H167.53ZM182.895 87.0909H180.743V84.4773H178.172V87.0909H176.624V89.0795H178.172V95.1449C178.158 97.1974 179.649 98.206 181.581 98.1491C182.313 98.1278 182.817 97.9858 183.094 97.8935L182.661 95.8835C182.519 95.919 182.227 95.983 181.908 95.983C181.262 95.983 180.743 95.7557 180.743 94.7188V89.0795H182.895V87.0909ZM189.837 98.2131C192.578 98.2131 194.325 96.5866 194.51 94.2713H192.052C191.832 95.4432 190.987 96.1179 189.858 96.1179C188.253 96.1179 187.216 94.7756 187.216 92.5455C187.216 90.3438 188.274 89.0227 189.858 89.0227C191.094 89.0227 191.854 89.8182 192.052 90.8693H194.51C194.332 88.5043 192.486 86.9489 189.822 86.9489C186.626 86.9489 184.609 89.2571 184.609 92.5881C184.609 95.8906 186.577 98.2131 189.837 98.2131ZM199.342 91.608C199.342 90.0312 200.322 89.1222 201.7 89.1222C203.049 89.1222 203.845 89.9815 203.845 91.4517V98H206.416V91.054C206.416 88.419 204.924 86.9489 202.659 86.9489C200.983 86.9489 199.917 87.7088 199.413 88.9446H199.285V83.4545H196.771V98H199.342V91.608ZM217.437 98.2202C219.148 98.2202 220.171 97.4176 220.64 96.5014H220.725V98H223.197V90.6989C223.197 87.8153 220.846 86.9489 218.765 86.9489C216.471 86.9489 214.71 87.9716 214.141 89.9602L216.542 90.3011C216.798 89.5554 217.522 88.9162 218.779 88.9162C219.972 88.9162 220.626 89.527 220.626 90.5994V90.642C220.626 91.3807 219.852 91.4162 217.927 91.6222C215.81 91.8494 213.786 92.4815 213.786 94.9389C213.786 97.0838 215.356 98.2202 217.437 98.2202ZM218.104 96.331C217.032 96.331 216.265 95.8409 216.265 94.8963C216.265 93.9091 217.124 93.4972 218.275 93.3338C218.95 93.2415 220.299 93.071 220.633 92.8011V94.0866C220.633 95.3011 219.653 96.331 218.104 96.331ZM228.503 91.608C228.503 90.0312 229.455 89.1222 230.811 89.1222C232.139 89.1222 232.935 89.9957 232.935 91.4517V98H235.506V91.054C235.513 88.4403 234.021 86.9489 231.77 86.9489C230.136 86.9489 229.014 87.7301 228.517 88.9446H228.389V87.0909H225.932V98H228.503V91.608ZM246.52 98.2202C248.231 98.2202 249.254 97.4176 249.723 96.5014H249.808V98H252.28V90.6989C252.28 87.8153 249.929 86.9489 247.848 86.9489C245.554 86.9489 243.792 87.9716 243.224 89.9602L245.625 90.3011C245.88 89.5554 246.605 88.9162 247.862 88.9162C249.055 88.9162 249.709 89.527 249.709 90.5994V90.642C249.709 91.3807 248.934 91.4162 247.01 91.6222C244.893 91.8494 242.869 92.4815 242.869 94.9389C242.869 97.0838 244.439 98.2202 246.52 98.2202ZM247.187 96.331C246.115 96.331 245.348 95.8409 245.348 94.8963C245.348 93.9091 246.207 93.4972 247.358 93.3338C248.032 93.2415 249.382 93.071 249.716 92.8011V94.0866C249.716 95.3011 248.736 96.331 247.187 96.331ZM255.015 98H257.586V91.5866C257.586 90.2017 258.63 89.2216 260.043 89.2216C260.476 89.2216 261.016 89.2997 261.236 89.3707V87.0057C261.002 86.9631 260.597 86.9347 260.313 86.9347C259.063 86.9347 258.019 87.6449 257.621 88.9091H257.508V87.0909H255.015V98ZM269.128 87.0909H266.976V84.4773H264.405V87.0909H262.857V89.0795H264.405V95.1449C264.391 97.1974 265.882 98.206 267.814 98.1491C268.545 98.1278 269.05 97.9858 269.327 97.8935L268.893 95.8835C268.751 95.919 268.46 95.983 268.141 95.983C267.494 95.983 266.976 95.7557 266.976 94.7188V89.0795H269.128V87.0909ZM271.428 98H273.999V87.0909H271.428V98ZM272.721 85.5426C273.537 85.5426 274.205 84.9176 274.205 84.1506C274.205 83.3764 273.537 82.7514 272.721 82.7514C271.897 82.7514 271.229 83.3764 271.229 84.1506C271.229 84.9176 271.897 85.5426 272.721 85.5426ZM281.551 98.2131C284.293 98.2131 286.04 96.5866 286.225 94.2713H283.767C283.547 95.4432 282.702 96.1179 281.573 96.1179C279.968 96.1179 278.931 94.7756 278.931 92.5455C278.931 90.3438 279.989 89.0227 281.573 89.0227C282.809 89.0227 283.568 89.8182 283.767 90.8693H286.225C286.047 88.5043 284.201 86.9489 281.537 86.9489C278.341 86.9489 276.324 89.2571 276.324 92.5881C276.324 95.8906 278.291 98.2131 281.551 98.2131ZM291.057 83.4545H288.486V98H291.057V83.4545ZM298.68 98.2131C301.223 98.2131 302.97 96.9702 303.425 95.0739L301.024 94.804C300.676 95.7273 299.824 96.2102 298.716 96.2102C297.054 96.2102 295.953 95.1165 295.932 93.2486H303.531V92.4602C303.531 88.6321 301.23 86.9489 298.545 86.9489C295.42 86.9489 293.382 89.2429 293.382 92.6094C293.382 96.0327 295.392 98.2131 298.68 98.2131ZM295.939 91.5156C296.017 90.1236 297.047 88.9517 298.581 88.9517C300.058 88.9517 301.052 90.0312 301.067 91.5156H295.939Z" fill="#03DAC5" fill-opacity="0.8"/>
<g filter="url(#filter2_ddd)">
<rect x="14" y="144" width="308" height="65" rx="4" fill="#121212"/>
<rect x="14" y="144" width="308" height="65" rx="4" fill="white" fill-opacity="0.05"/>
</g>
<g filter="url(#filter3_ddd)">
<rect x="14" y="144" width="308" height="65" rx="4" fill="white" fill-opacity="0.12"/>
</g>
<path d="M72.4347 184H75.0696V179.085H77.8537C81.2131 179.085 83.017 177.068 83.017 174.27C83.017 171.493 81.2344 169.455 77.8892 169.455H72.4347V184ZM75.0696 176.919V171.656H77.4844C79.4588 171.656 80.3324 172.722 80.3324 174.27C80.3324 175.818 79.4588 176.919 77.4986 176.919H75.0696ZM85.3421 184H87.9131V173.091H85.3421V184ZM86.6347 171.543C87.4515 171.543 88.1191 170.918 88.1191 170.151C88.1191 169.376 87.4515 168.751 86.6347 168.751C85.8109 168.751 85.1433 169.376 85.1433 170.151C85.1433 170.918 85.8109 171.543 86.6347 171.543ZM95.4655 184.213C98.207 184.213 99.9541 182.587 100.139 180.271H97.6814C97.4612 181.443 96.6161 182.118 95.4868 182.118C93.8817 182.118 92.8447 180.776 92.8447 178.545C92.8447 176.344 93.903 175.023 95.4868 175.023C96.7226 175.023 97.4825 175.818 97.6814 176.869H100.139C99.9612 174.504 98.1146 172.949 95.4513 172.949C92.2553 172.949 90.2382 175.257 90.2382 178.588C90.2382 181.891 92.2055 184.213 95.4655 184.213ZM102.4 184H104.971V180.335L105.908 179.334L109.247 184H112.322L107.847 177.8L112.073 173.091H109.069L105.149 177.473H104.971V169.455H102.4V184ZM122.187 184.22C123.898 184.22 124.921 183.418 125.39 182.501H125.475V184H127.947V176.699C127.947 173.815 125.596 172.949 123.515 172.949C121.221 172.949 119.46 173.972 118.891 175.96L121.292 176.301C121.548 175.555 122.272 174.916 123.529 174.916C124.722 174.916 125.376 175.527 125.376 176.599V176.642C125.376 177.381 124.602 177.416 122.677 177.622C120.56 177.849 118.536 178.482 118.536 180.939C118.536 183.084 120.106 184.22 122.187 184.22ZM122.854 182.331C121.782 182.331 121.015 181.841 121.015 180.896C121.015 179.909 121.874 179.497 123.025 179.334C123.7 179.241 125.049 179.071 125.383 178.801V180.087C125.383 181.301 124.403 182.331 122.854 182.331ZM145.537 173.091H142.803L140.289 181.195H140.175L137.668 173.091H134.926L138.811 184H141.652L145.537 173.091ZM151.854 184.213C155.05 184.213 157.081 181.962 157.081 178.588C157.081 175.207 155.05 172.949 151.854 172.949C148.658 172.949 146.626 175.207 146.626 178.588C146.626 181.962 148.658 184.213 151.854 184.213ZM151.868 182.153C150.1 182.153 149.233 180.577 149.233 178.581C149.233 176.585 150.1 174.987 151.868 174.987C153.608 174.987 154.475 176.585 154.475 178.581C154.475 180.577 153.608 182.153 151.868 182.153ZM159.413 184H161.984V173.091H159.413V184ZM160.706 171.543C161.523 171.543 162.19 170.918 162.19 170.151C162.19 169.376 161.523 168.751 160.706 168.751C159.882 168.751 159.214 169.376 159.214 170.151C159.214 170.918 159.882 171.543 160.706 171.543ZM169.537 184.213C172.278 184.213 174.025 182.587 174.21 180.271H171.752C171.532 181.443 170.687 182.118 169.558 182.118C167.953 182.118 166.916 180.776 166.916 178.545C166.916 176.344 167.974 175.023 169.558 175.023C170.794 175.023 171.554 175.818 171.752 176.869H174.21C174.032 174.504 172.186 172.949 169.522 172.949C166.326 172.949 164.309 175.257 164.309 178.588C164.309 181.891 166.277 184.213 169.537 184.213ZM181.301 184.213C183.843 184.213 185.59 182.97 186.045 181.074L183.644 180.804C183.296 181.727 182.444 182.21 181.336 182.21C179.674 182.21 178.573 181.116 178.552 179.249H186.151V178.46C186.151 174.632 183.85 172.949 181.166 172.949C178.041 172.949 176.002 175.243 176.002 178.609C176.002 182.033 178.012 184.213 181.301 184.213ZM178.559 177.516C178.637 176.124 179.667 174.952 181.201 174.952C182.678 174.952 183.673 176.031 183.687 177.516H178.559Z" fill="#03DAC5" fill-opacity="0.8"/>
<path d="M46 167H30C28.9 167 28.01 167.9 28.01 169L28 187L32 183H46C47.1 183 48 182.1 48 181V169C48 167.9 47.1 167 46 167ZM34 179H32V177H34V179ZM34 176H32V174H34V176ZM34 173H32V171H34V173ZM41 179H36V177H41V179ZM44 176H36V174H44V176ZM44 173H36V171H44V173Z" fill="#03DAC5" fill-opacity="0.8"/>
<g filter="url(#filter4_ddd)">
<rect x="14" y="230" width="308" height="65" rx="4" fill="#121212"/>
<rect x="14" y="230" width="308" height="65" rx="4" fill="white" fill-opacity="0.05"/>
</g>
<g filter="url(#filter5_ddd)">
<rect x="14" y="230" width="308" height="65" rx="4" fill="white" fill-opacity="0.12"/>
</g>
<path d="M72.4347 270H81.4759V267.791H75.0696V255.455H72.4347V270ZM83.7991 270H86.3702V259.091H83.7991V270ZM85.0918 257.543C85.9085 257.543 86.5761 256.918 86.5761 256.151C86.5761 255.376 85.9085 254.751 85.0918 254.751C84.2679 254.751 83.6003 255.376 83.6003 256.151C83.6003 256.918 84.2679 257.543 85.0918 257.543ZM89.0219 270H97.9779V267.869H92.4381V267.777L97.7933 260.845V259.091H89.2066V261.222H94.6469V261.314L89.0219 268.366V270ZM105.062 270.213C107.604 270.213 109.351 268.97 109.806 267.074L107.405 266.804C107.057 267.727 106.205 268.21 105.097 268.21C103.435 268.21 102.334 267.116 102.313 265.249H109.912V264.46C109.912 260.632 107.611 258.949 104.927 258.949C101.802 258.949 99.7632 261.243 99.7632 264.609C99.7632 268.033 101.773 270.213 105.062 270.213ZM102.32 263.516C102.398 262.124 103.428 260.952 104.962 260.952C106.439 260.952 107.434 262.031 107.448 263.516H102.32ZM114.808 263.608C114.808 262.031 115.76 261.122 117.117 261.122C118.445 261.122 119.24 261.996 119.24 263.452V270H121.811V263.054C121.818 260.44 120.327 258.949 118.075 258.949C116.442 258.949 115.32 259.73 114.823 260.945H114.695V259.091H112.237V270H114.808V263.608ZM132.257 255.455H129.686V270H132.257V255.455ZM135.051 270H137.622V259.091H135.051V270ZM136.343 257.543C137.16 257.543 137.828 256.918 137.828 256.151C137.828 255.376 137.16 254.751 136.343 254.751C135.519 254.751 134.852 255.376 134.852 256.151C134.852 256.918 135.519 257.543 136.343 257.543ZM140.416 270H142.987V266.335L143.924 265.334L147.262 270H150.337L145.863 263.8L150.089 259.091H147.085L143.164 263.473H142.987V255.455H140.416V270ZM156.333 270.213C158.875 270.213 160.622 268.97 161.077 267.074L158.676 266.804C158.328 267.727 157.476 268.21 156.368 268.21C154.706 268.21 153.605 267.116 153.584 265.249H161.183V264.46C161.183 260.632 158.882 258.949 156.198 258.949C153.073 258.949 151.034 261.243 151.034 264.609C151.034 268.033 153.044 270.213 156.333 270.213ZM153.591 263.516C153.669 262.124 154.699 260.952 156.233 260.952C157.71 260.952 158.705 262.031 158.719 263.516H153.591ZM171.759 270.22C173.47 270.22 174.493 269.418 174.962 268.501H175.047V270H177.519V262.699C177.519 259.815 175.168 258.949 173.087 258.949C170.793 258.949 169.031 259.972 168.463 261.96L170.864 262.301C171.119 261.555 171.844 260.916 173.101 260.916C174.294 260.916 174.948 261.527 174.948 262.599V262.642C174.948 263.381 174.173 263.416 172.249 263.622C170.132 263.849 168.108 264.482 168.108 266.939C168.108 269.084 169.678 270.22 171.759 270.22ZM172.426 268.331C171.354 268.331 170.587 267.841 170.587 266.896C170.587 265.909 171.446 265.497 172.597 265.334C173.271 265.241 174.621 265.071 174.955 264.801V266.087C174.955 267.301 173.975 268.331 172.426 268.331ZM185.365 274.091H187.936V268.281H188.042C188.447 269.077 189.292 270.192 191.167 270.192C193.738 270.192 195.663 268.153 195.663 264.56C195.663 260.923 193.682 258.949 191.16 258.949C189.236 258.949 188.433 260.107 188.042 260.895H187.893V259.091H185.365V274.091ZM187.886 264.545C187.886 262.429 188.795 261.058 190.45 261.058C192.162 261.058 193.042 262.514 193.042 264.545C193.042 266.591 192.147 268.082 190.45 268.082C188.809 268.082 187.886 266.662 187.886 264.545ZM202.773 270.213C205.969 270.213 208.001 267.962 208.001 264.588C208.001 261.207 205.969 258.949 202.773 258.949C199.577 258.949 197.546 261.207 197.546 264.588C197.546 267.962 199.577 270.213 202.773 270.213ZM202.787 268.153C201.019 268.153 200.153 266.577 200.153 264.581C200.153 262.585 201.019 260.987 202.787 260.987C204.528 260.987 205.394 262.585 205.394 264.581C205.394 266.577 204.528 268.153 202.787 268.153ZM214.381 270.192C216.256 270.192 217.101 269.077 217.506 268.281H217.662V270H220.191V255.455H217.613V260.895H217.506C217.115 260.107 216.313 258.949 214.388 258.949C211.867 258.949 209.885 260.923 209.885 264.56C209.885 268.153 211.81 270.192 214.381 270.192ZM215.098 268.082C213.401 268.082 212.506 266.591 212.506 264.545C212.506 262.514 213.387 261.058 215.098 261.058C216.753 261.058 217.662 262.429 217.662 264.545C217.662 266.662 216.739 268.082 215.098 268.082ZM227.839 270.213C230.58 270.213 232.328 268.587 232.512 266.271H230.055C229.835 267.443 228.989 268.118 227.86 268.118C226.255 268.118 225.218 266.776 225.218 264.545C225.218 262.344 226.276 261.023 227.86 261.023C229.096 261.023 229.856 261.818 230.055 262.869H232.512C232.335 260.504 230.488 258.949 227.825 258.949C224.629 258.949 222.612 261.257 222.612 264.588C222.612 267.891 224.579 270.213 227.839 270.213ZM237.913 270.22C239.624 270.22 240.647 269.418 241.116 268.501H241.201V270H243.673V262.699C243.673 259.815 241.322 258.949 239.241 258.949C236.947 258.949 235.185 259.972 234.617 261.96L237.018 262.301C237.273 261.555 237.998 260.916 239.255 260.916C240.448 260.916 241.101 261.527 241.101 262.599V262.642C241.101 263.381 240.327 263.416 238.403 263.622C236.286 263.849 234.262 264.482 234.262 266.939C234.262 269.084 235.832 270.22 237.913 270.22ZM238.58 268.331C237.508 268.331 236.741 267.841 236.741 266.896C236.741 265.909 237.6 265.497 238.751 265.334C239.425 265.241 240.775 265.071 241.109 264.801V266.087C241.109 267.301 240.128 268.331 238.58 268.331ZM255.03 261.974C254.675 260.128 253.198 258.949 250.641 258.949C248.013 258.949 246.223 260.241 246.23 262.259C246.223 263.849 247.203 264.901 249.298 265.334L251.159 265.724C252.161 265.945 252.629 266.349 252.629 266.967C252.629 267.713 251.82 268.274 250.598 268.274C249.419 268.274 248.652 267.763 248.432 266.783L245.925 267.024C246.244 269.027 247.928 270.213 250.605 270.213C253.332 270.213 255.257 268.8 255.264 266.733C255.257 265.178 254.256 264.226 252.196 263.778L250.335 263.381C249.227 263.132 248.787 262.749 248.794 262.116C248.787 261.378 249.604 260.866 250.676 260.866C251.862 260.866 252.487 261.513 252.686 262.23L255.03 261.974ZM262.982 259.091H260.83V256.477H258.259V259.091H256.71V261.08H258.259V267.145C258.245 269.197 259.736 270.206 261.668 270.149C262.399 270.128 262.904 269.986 263.181 269.893L262.747 267.884C262.605 267.919 262.314 267.983 261.995 267.983C261.348 267.983 260.83 267.756 260.83 266.719V261.08H262.982V259.091ZM268.428 255.455H265.68L265.907 265.724H268.194L268.428 255.455ZM267.05 270.156C267.888 270.156 268.606 269.46 268.613 268.594C268.606 267.741 267.888 267.045 267.05 267.045C266.184 267.045 265.481 267.741 265.488 268.594C265.481 269.46 266.184 270.156 267.05 270.156Z" fill="#03DAC5" fill-opacity="0.8"/>
<path d="M33 269H35V257H33V269ZM37 273H39V253H37V273ZM29 265H31V261H29V265ZM41 269H43V257H41V269ZM45 261V265H47V261H45Z" fill="#03DAC5" fill-opacity="0.8"/>
<rect x="373" y="349" width="343" height="2" rx="1" transform="rotate(-90 373 349)" fill="#03DAC5"/>
<rect x="322" y="90" width="47" height="2" rx="1" fill="#03DAC5"/>
<circle cx="374" cy="91" r="5" fill="#03DAC5"/>
<circle cx="374" cy="5" r="5" fill="#03DAC5"/>
<rect x="322" y="262" width="47" height="2" rx="1" fill="#03DAC5"/>
<circle cx="374" cy="263" r="5" fill="#03DAC5"/>
<rect x="322" y="176" width="47" height="2" rx="1" fill="#03DAC5"/>
<circle cx="374" cy="177" r="5" fill="#03DAC5"/>
<circle cx="374" cy="349" r="5" fill="#03DAC5"/>
<defs>
<filter id="filter0_ddd" x="11" y="56" width="314" height="71" filterUnits="userSpaceOnUse" color-interpolation-filters="sRGB">
<feFlood flood-opacity="0" result="BackgroundImageFix"/>
<feColorMatrix in="SourceAlpha" type="matrix" values="0 0 0 0 0 0 0 0 0 0 0 0 0 0 0 0 0 0 127 0" result="hardAlpha"/>
<feOffset dy="1"/>
<feGaussianBlur stdDeviation="1.5"/>
<feColorMatrix type="matrix" values="0 0 0 0 0 0 0 0 0 0 0 0 0 0 0 0 0 0 0.2 0"/>
<feBlend mode="normal" in2="BackgroundImageFix" result="effect1_dropShadow"/>
<feColorMatrix in="SourceAlpha" type="matrix" values="0 0 0 0 0 0 0 0 0 0 0 0 0 0 0 0 0 0 127 0" result="hardAlpha"/>
<feOffset dy="2"/>
<feGaussianBlur stdDeviation="0.5"/>
<feColorMatrix type="matrix" values="0 0 0 0 0 0 0 0 0 0 0 0 0 0 0 0 0 0 0.12 0"/>
<feBlend mode="normal" in2="effect1_dropShadow" result="effect2_dropShadow"/>
<feColorMatrix in="SourceAlpha" type="matrix" values="0 0 0 0 0 0 0 0 0 0 0 0 0 0 0 0 0 0 127 0" result="hardAlpha"/>
<feOffset dy="1"/>
<feGaussianBlur stdDeviation="0.5"/>
<feColorMatrix type="matrix" values="0 0 0 0 0 0 0 0 0 0 0 0 0 0 0 0 0 0 0.14 0"/>
<feBlend mode="normal" in2="effect2_dropShadow" result="effect3_dropShadow"/>
<feBlend mode="normal" in="SourceGraphic" in2="effect3_dropShadow" result="shape"/>
</filter>
<filter id="filter1_ddd" x="0" y="47" width="336" height="94" filterUnits="userSpaceOnUse" color-interpolation-filters="sRGB">
<feFlood flood-opacity="0" result="BackgroundImageFix"/>
<feColorMatrix in="SourceAlpha" type="matrix" values="0 0 0 0 0 0 0 0 0 0 0 0 0 0 0 0 0 0 127 0" result="hardAlpha"/>
<feOffset dy="5"/>
<feGaussianBlur stdDeviation="2.5"/>
<feColorMatrix type="matrix" values="0 0 0 0 0 0 0 0 0 0 0 0 0 0 0 0 0 0 0.2 0"/>
<feBlend mode="normal" in2="BackgroundImageFix" result="effect1_dropShadow"/>
<feColorMatrix in="SourceAlpha" type="matrix" values="0 0 0 0 0 0 0 0 0 0 0 0 0 0 0 0 0 0 127 0" result="hardAlpha"/>
<feOffset dy="3"/>
<feGaussianBlur stdDeviation="7"/>
<feColorMatrix type="matrix" values="0 0 0 0 0 0 0 0 0 0 0 0 0 0 0 0 0 0 0.12 0"/>
<feBlend mode="normal" in2="effect1_dropShadow" result="effect2_dropShadow"/>
<feColorMatrix in="SourceAlpha" type="matrix" values="0 0 0 0 0 0 0 0 0 0 0 0 0 0 0 0 0 0 127 0" result="hardAlpha"/>
<feOffset dy="8"/>
<feGaussianBlur stdDeviation="5"/>
<feColorMatrix type="matrix" values="0 0 0 0 0 0 0 0 0 0 0 0 0 0 0 0 0 0 0.14 0"/>
<feBlend mode="normal" in2="effect2_dropShadow" result="effect3_dropShadow"/>
<feBlend mode="normal" in="SourceGraphic" in2="effect3_dropShadow" result="shape"/>
</filter>
<filter id="filter2_ddd" x="11" y="142" width="314" height="71" filterUnits="userSpaceOnUse" color-interpolation-filters="sRGB">
<feFlood flood-opacity="0" result="BackgroundImageFix"/>
<feColorMatrix in="SourceAlpha" type="matrix" values="0 0 0 0 0 0 0 0 0 0 0 0 0 0 0 0 0 0 127 0" result="hardAlpha"/>
<feOffset dy="1"/>
<feGaussianBlur stdDeviation="1.5"/>
<feColorMatrix type="matrix" values="0 0 0 0 0 0 0 0 0 0 0 0 0 0 0 0 0 0 0.2 0"/>
<feBlend mode="normal" in2="BackgroundImageFix" result="effect1_dropShadow"/>
<feColorMatrix in="SourceAlpha" type="matrix" values="0 0 0 0 0 0 0 0 0 0 0 0 0 0 0 0 0 0 127 0" result="hardAlpha"/>
<feOffset dy="2"/>
<feGaussianBlur stdDeviation="0.5"/>
<feColorMatrix type="matrix" values="0 0 0 0 0 0 0 0 0 0 0 0 0 0 0 0 0 0 0.12 0"/>
<feBlend mode="normal" in2="effect1_dropShadow" result="effect2_dropShadow"/>
<feColorMatrix in="SourceAlpha" type="matrix" values="0 0 0 0 0 0 0 0 0 0 0 0 0 0 0 0 0 0 127 0" result="hardAlpha"/>
<feOffset dy="1"/>
<feGaussianBlur stdDeviation="0.5"/>
<feColorMatrix type="matrix" values="0 0 0 0 0 0 0 0 0 0 0 0 0 0 0 0 0 0 0.14 0"/>
<feBlend mode="normal" in2="effect2_dropShadow" result="effect3_dropShadow"/>
<feBlend mode="normal" in="SourceGraphic" in2="effect3_dropShadow" result="shape"/>
</filter>
<filter id="filter3_ddd" x="0" y="133" width="336" height="94" filterUnits="userSpaceOnUse" color-interpolation-filters="sRGB">
<feFlood flood-opacity="0" result="BackgroundImageFix"/>
<feColorMatrix in="SourceAlpha" type="matrix" values="0 0 0 0 0 0 0 0 0 0 0 0 0 0 0 0 0 0 127 0" result="hardAlpha"/>
<feOffset dy="5"/>
<feGaussianBlur stdDeviation="2.5"/>
<feColorMatrix type="matrix" values="0 0 0 0 0 0 0 0 0 0 0 0 0 0 0 0 0 0 0.2 0"/>
<feBlend mode="normal" in2="BackgroundImageFix" result="effect1_dropShadow"/>
<feColorMatrix in="SourceAlpha" type="matrix" values="0 0 0 0 0 0 0 0 0 0 0 0 0 0 0 0 0 0 127 0" result="hardAlpha"/>
<feOffset dy="3"/>
<feGaussianBlur stdDeviation="7"/>
<feColorMatrix type="matrix" values="0 0 0 0 0 0 0 0 0 0 0 0 0 0 0 0 0 0 0.12 0"/>
<feBlend mode="normal" in2="effect1_dropShadow" result="effect2_dropShadow"/>
<feColorMatrix in="SourceAlpha" type="matrix" values="0 0 0 0 0 0 0 0 0 0 0 0 0 0 0 0 0 0 127 0" result="hardAlpha"/>
<feOffset dy="8"/>
<feGaussianBlur stdDeviation="5"/>
<feColorMatrix type="matrix" values="0 0 0 0 0 0 0 0 0 0 0 0 0 0 0 0 0 0 0.14 0"/>
<feBlend mode="normal" in2="effect2_dropShadow" result="effect3_dropShadow"/>
<feBlend mode="normal" in="SourceGraphic" in2="effect3_dropShadow" result="shape"/>
</filter>
<filter id="filter4_ddd" x="11" y="228" width="314" height="71" filterUnits="userSpaceOnUse" color-interpolation-filters="sRGB">
<feFlood flood-opacity="0" result="BackgroundImageFix"/>
<feColorMatrix in="SourceAlpha" type="matrix" values="0 0 0 0 0 0 0 0 0 0 0 0 0 0 0 0 0 0 127 0" result="hardAlpha"/>
<feOffset dy="1"/>
<feGaussianBlur stdDeviation="1.5"/>
<feColorMatrix type="matrix" values="0 0 0 0 0 0 0 0 0 0 0 0 0 0 0 0 0 0 0.2 0"/>
<feBlend mode="normal" in2="BackgroundImageFix" result="effect1_dropShadow"/>
<feColorMatrix in="SourceAlpha" type="matrix" values="0 0 0 0 0 0 0 0 0 0 0 0 0 0 0 0 0 0 127 0" result="hardAlpha"/>
<feOffset dy="2"/>
<feGaussianBlur stdDeviation="0.5"/>
<feColorMatrix type="matrix" values="0 0 0 0 0 0 0 0 0 0 0 0 0 0 0 0 0 0 0.12 0"/>
<feBlend mode="normal" in2="effect1_dropShadow" result="effect2_dropShadow"/>
<feColorMatrix in="SourceAlpha" type="matrix" values="0 0 0 0 0 0 0 0 0 0 0 0 0 0 0 0 0 0 127 0" result="hardAlpha"/>
<feOffset dy="1"/>
<feGaussianBlur stdDeviation="0.5"/>
<feColorMatrix type="matrix" values="0 0 0 0 0 0 0 0 0 0 0 0 0 0 0 0 0 0 0.14 0"/>
<feBlend mode="normal" in2="effect2_dropShadow" result="effect3_dropShadow"/>
<feBlend mode="normal" in="SourceGraphic" in2="effect3_dropShadow" result="shape"/>
</filter>
<filter id="filter5_ddd" x="0" y="219" width="336" height="94" filterUnits="userSpaceOnUse" color-interpolation-filters="sRGB">
<feFlood flood-opacity="0" result="BackgroundImageFix"/>
<feColorMatrix in="SourceAlpha" type="matrix" values="0 0 0 0 0 0 0 0 0 0 0 0 0 0 0 0 0 0 127 0" result="hardAlpha"/>
<feOffset dy="5"/>
<feGaussianBlur stdDeviation="2.5"/>
<feColorMatrix type="matrix" values="0 0 0 0 0 0 0 0 0 0 0 0 0 0 0 0 0 0 0.2 0"/>
<feBlend mode="normal" in2="BackgroundImageFix" result="effect1_dropShadow"/>
<feColorMatrix in="SourceAlpha" type="matrix" values="0 0 0 0 0 0 0 0 0 0 0 0 0 0 0 0 0 0 127 0" result="hardAlpha"/>
<feOffset dy="3"/>
<feGaussianBlur stdDeviation="7"/>
<feColorMatrix type="matrix" values="0 0 0 0 0 0 0 0 0 0 0 0 0 0 0 0 0 0 0.12 0"/>
<feBlend mode="normal" in2="effect1_dropShadow" result="effect2_dropShadow"/>
<feColorMatrix in="SourceAlpha" type="matrix" values="0 0 0 0 0 0 0 0 0 0 0 0 0 0 0 0 0 0 127 0" result="hardAlpha"/>
<feOffset dy="8"/>
<feGaussianBlur stdDeviation="5"/>
<feColorMatrix type="matrix" values="0 0 0 0 0 0 0 0 0 0 0 0 0 0 0 0 0 0 0.14 0"/>
<feBlend mode="normal" in2="effect2_dropShadow" result="effect3_dropShadow"/>
<feBlend mode="normal" in="SourceGraphic" in2="effect3_dropShadow" result="shape"/>
</filter>
</defs>
</svg>
