<svg xmlns="http://www.w3.org/2000/svg" width="29.698" height="29.698" viewBox="0 0 29.698 29.698">
  <g id="link-24px" transform="translate(29.698 14.849) rotate(135)">
    <path id="Path_38" data-name="Path 38" d="M0,0H21V21H0Z" fill="none"/>
    <path id="Path_39" data-name="Path 39" d="M3.663,11.375A2.715,2.715,0,0,1,6.375,8.662h3.5V7h-3.5a4.375,4.375,0,0,0,0,8.75h3.5V14.088h-3.5A2.715,2.715,0,0,1,3.663,11.375Zm3.587.875h7V10.5h-7ZM15.125,7h-3.5V8.662h3.5a2.713,2.713,0,0,1,0,5.425h-3.5V15.75h3.5a4.375,4.375,0,0,0,0-8.75Z" transform="translate(-0.25 -0.875)" fill="#20f"/>
  </g>
</svg>
