<svg id="content_paste-24px" xmlns="http://www.w3.org/2000/svg" width="19" height="19" viewBox="0 0 19 19">
  <path id="Path_36" data-name="Path 36" d="M0,0H19V19H0Z" fill="none"/>
  <path id="Path_37" data-name="Path 37" d="M15.667,1.583H12.358a2.366,2.366,0,0,0-4.465,0H4.583A1.588,1.588,0,0,0,3,3.167V15.833a1.588,1.588,0,0,0,1.583,1.583H15.667a1.588,1.588,0,0,0,1.583-1.583V3.167A1.588,1.588,0,0,0,15.667,1.583Zm-5.542,0a.792.792,0,1,1-.792.792A.794.794,0,0,1,10.125,1.583Zm5.542,14.25H4.583V3.167H6.167V5.542h7.917V3.167h1.583Z" transform="translate(-0.625)" fill="#20f"/>
</svg>
