<svg xmlns="http://www.w3.org/2000/svg" width="97.341" height="149.052" viewBox="0 0 97.341 149.052">
  <g id="layer1" transform="translate(391.03 -462.869)">
    <g id="Group_1" data-name="Group 1" transform="translate(-372.408 499.236)">
      <path id="Path_1" data-name="Path 1" d="M283.348,769.754c.184-.3.486-.927.837-1.569s.757-1.3,1.209-1.978a25.788,25.788,0,0,1,1.618-2.178c.659-.8,1.462-1.664,2.272-2.467a30.159,30.159,0,0,1,2.482-2.2,32.5,32.5,0,0,1,2.679-1.885,20.121,20.121,0,0,1,3.527-1.785,37.5,37.5,0,0,1,4.975-1.529c1.911-.461,4.048-.984,5.768-1.355a17.743,17.743,0,0,1,4.244-.469,21.671,21.671,0,0,1,4.029.458,28.649,28.649,0,0,1,3.873,1.089,12.982,12.982,0,0,1,2.81,1.474c1.041.681,2.344,1.615,3.931,2.765s3.482,2.487,4.948,3.7,1.466,1.21.555.334c0,0-1.624-1.961-3.043-3.66a53.748,53.748,0,0,0-3.812-4.153,16.522,16.522,0,0,0-6.822-4.36,25.5,25.5,0,0,0-4.675-1.335,21.4,21.4,0,0,0-4.656-.322,32.832,32.832,0,0,0-6.243,1.039,38.926,38.926,0,0,0-5.868,2.031,24.8,24.8,0,0,0-4.412,2.461,29.871,29.871,0,0,0-2.982,2.4,27.247,27.247,0,0,0-2.488,2.625,29.092,29.092,0,0,0-2.2,3.032,20,20,0,0,0-1.492,2.785,18.275,18.275,0,0,0-.871,2.4A8.09,8.09,0,0,0,283.2,769C283.129,769.7,283.424,769.425,283.348,769.754Z" transform="translate(-283.186 -748.312)"/>
    </g>
    <g id="Group_2" data-name="Group 2" transform="translate(-370.431 517.835)">
      <path id="Path_2" data-name="Path 2" d="M298.7,901.475a7.252,7.252,0,0,1,1.149-.367,18.489,18.489,0,0,1,2.2-.334c.895-.092,1.955-.161,2.688-.186s1.1-.009,1.448.007.691.037,1.02.064.646.057,1.537.166,2.42.307,3.172.364,1.409.108,1.989.167,1.084.111,1.509.158a15.422,15.422,0,0,0,1.715.109c.791.009,1.456.019,2.028.031a11.468,11.468,0,0,0,1.434-.02c.383-.045.875-.07,4.179-.642s4.847-.95,5.973-1.247,1.869-.516,2.582-.755,1.393-.5,2.044-.78a13.568,13.568,0,0,0,1.823-.909,7.85,7.85,0,0,0,1.274-.983,11.447,11.447,0,0,0,.905-.941,3.451,3.451,0,0,0,.584-.869c.1-.257.1-.257-.013-.131a2.93,2.93,0,0,0-.67.325,11.211,11.211,0,0,1-1,.61c-.367.2-.767.4-1.175.587a9.505,9.505,0,0,1-1.621.469q-.957.221-1.985.393c-.686.115-1.392.228-2.123.32s-2.24.255-4.615.429-5.68.38-5.932.36a7.247,7.247,0,0,0-1.22-.034q-.789.058-1.841.148c-.7.059-1.425.128-1.771.12s-.836-.011-1.393,0-1.185.032-1.882.055-1.422.054-2.936.07-1.884.029-2.234.055-.707.059-1.073.1-.74.086-1.152.148a25.525,25.525,0,0,0-2.607.653,16.8,16.8,0,0,0-2.509.955,5.281,5.281,0,0,0-1.334.851C298.549,901.309,298.841,901.348,298.7,901.475Z" transform="translate(-298.7 -894.295)"/>
    </g>
    <g id="Group_3" data-name="Group 3" transform="translate(-368.453 530.639)">
      <path id="Path_3" data-name="Path 3" d="M320.341,994.839a3.117,3.117,0,0,0-1.238.031,4.76,4.76,0,0,0-1.522.607,8.156,8.156,0,0,0-1.278.961c-.27.256-.342.324-.408.391s-.125.133-.18.2-.106.14-.249.7-.461,1.529-.9,2.854-.441,1.324-.011.511c0,0,1.269-1.417,1.884-2.263a10.3,10.3,0,0,0,.611-.855.538.538,0,0,1,.048-.1c.026-.047.061-.1.108-.174s.392-.567.724-.971a5.412,5.412,0,0,1,1.041-.991,8.17,8.17,0,0,1,.951-.558C320.347,995.063,320.112,994.845,320.341,994.839Z" transform="translate(-314.232 -994.791)"/>
    </g>
    <g id="Group_4" data-name="Group 4" transform="translate(-357.978 531.173)">
      <path id="Path_4" data-name="Path 4" d="M398.128,998.979a6.8,6.8,0,0,0-.563.948q-.345.654-.735,1.531a6.253,6.253,0,0,0-.317,1.868,9.367,9.367,0,0,0-.066,1.208c.005.326.024.647.047.963s.018.627.022.86,0,.233,0,.078c0,0,0-.311.018-.622a4.561,4.561,0,0,1,.185-.921c.088-.3.189-.6.3-.9s.411-.984.649-1.614a8.678,8.678,0,0,0,.417-1.752c.084-.525.162-.976.173-1.187C398.336,999.064,398.06,999.146,398.128,998.979Z" transform="translate(-396.446 -998.979)"/>
    </g>
    <g id="Group_5" data-name="Group 5" transform="translate(-346.824 532.116)">
      <path id="Path_5" data-name="Path 5" d="M484.025,1006.38a6.019,6.019,0,0,0-.033.97q.011.64.084,1.438a4.714,4.714,0,0,0,.635,1.4c.16.372.242.552.337.731s.2.361.3.552.2.394.275.545l.027.051s-.107-.2-.2-.4a2.5,2.5,0,0,1-.2-.6,5.523,5.523,0,0,1-.082-.58c-.016-.186-.073-.8-.094-1.37a4.576,4.576,0,0,0-.354-1.46c-.156-.423-.286-.8-.368-.967C484.249,1006.353,484.044,1006.542,484.025,1006.38Z" transform="translate(-483.989 -1006.38)"/>
    </g>
    <g id="Group_6" data-name="Group 6" transform="translate(-335.616 531.146)">
      <path id="Path_6" data-name="Path 6" d="M571.965,998.79a11.353,11.353,0,0,0,.719.9q.4.484.694.852c.193.246.343.454.52.522a1.014,1.014,0,0,1,.372.256c.1.1.2.2.3.307s.207.222.346.395.313.412.475.625a6.842,6.842,0,0,1,.419.581c.108.18.206.334.276.436l.023.034s-.093-.136-.195-.3a2.931,2.931,0,0,1-.291-.586c-.082-.234-.167-.5-.258-.789a3.848,3.848,0,0,0-.237-.6c-.069-.141-.139-.278-.209-.41a.91.91,0,0,1-.142-.448c0-.189-.2-.364-.441-.554s-.525-.395-.857-.613a6.36,6.36,0,0,0-.945-.54C572.108,998.616,572.159,998.949,571.965,998.79Z" transform="translate(-571.965 -998.769)"/>
    </g>
    <g id="Group_7" data-name="Group 7" transform="translate(-328.317 528.436)">
      <path id="Path_7" data-name="Path 7" d="M629.254,977.563a12.375,12.375,0,0,0,1.826,1.2,13.632,13.632,0,0,0,2.967,1.317c1.161.342,2.48.609,3.268.752s.971.183,1.169.233a5.242,5.242,0,0,1,.632.192,6.322,6.322,0,0,1,.62.287c.175.089.175.089.058.029,0,0-.234-.12-.454-.228a5.346,5.346,0,0,1-.594-.361c-.181-.121-.353-.229-.516-.326s-1.432-.756-2.564-1.4a12.5,12.5,0,0,0-3.255-1.178,23.146,23.146,0,0,0-2.3-.523C629.349,977.359,629.589,977.718,629.254,977.563Z" transform="translate(-629.254 -977.497)"/>
    </g>
    <g id="Group_8" data-name="Group 8" transform="translate(-321.431 522.956)">
      <path id="Path_8" data-name="Path 8" d="M683.3,935.984a17.149,17.149,0,0,0,2.4.086,9.276,9.276,0,0,0,2.085-.171c.541-.141.944-.233,1.152-.274a4.376,4.376,0,0,1,.488-.072q.226-.02.512-.027c.191,0,.4,0,.7.005s.642.026.943.045a3.9,3.9,0,0,1,.758.1c.2.056.359.105.455.14l.032.012s-.128-.046-.3-.1a6.345,6.345,0,0,1-.641-.213c-.252-.1-.548-.223-.888-.355s-.564-.2-.768-.265-.394-.112-.571-.154-.342-.074-.5-.094-.506-.044-1-.133a4.641,4.641,0,0,0-1.833.246,11.929,11.929,0,0,0-2.059.678C683.268,935.762,683.834,935.9,683.3,935.984Z" transform="translate(-683.303 -934.49)"/>
    </g>
    <g id="Group_9" data-name="Group 9" transform="translate(-377.379 527.88)">
      <path id="Path_9" data-name="Path 9" d="M248.015,973.138a11.565,11.565,0,0,0-1.4,1.942,16.708,16.708,0,0,0-1.1,2.169,11.7,11.7,0,0,0-.569,1.7,8.1,8.1,0,0,0-.169.91c-.039.3-.078.673-.118,1.126s-.083.989-.106,1.326-.034.547-.045.846-.023.7-.039,1.208-.029,1.12-.189,4.272-.1,8.842-.085,9.066.039.466.074.734.086.559.146.88.117.587.132.761.035.375.052.548.032.319.047.449.026.189.04.292.038.24.07.393.07.324.116.516.108.448.726,2.553a25.79,25.79,0,0,0,.888,2.755c.136.335.352.9.645,1.681s.653,1.767,1.114,2.956.541,1.393.617,1.618.149.474.217.743.135.559.2.871a3.8,3.8,0,0,0,.128.517,2.718,2.718,0,0,1,.1.363c.026.136.056.288.08.409s.024.12.008.04c0,0-.032-.16-.06-.307a2.272,2.272,0,0,1-.05-.4,3.143,3.143,0,0,1,.024-.433c.024-.205.061-.518.087-.817s.036-.583.036-.855a11.723,11.723,0,0,0-.1-1.325c-.085-.8-.242-1.994-.394-2.972s-.282-1.743-.4-2.3-.223-.938-.381-2.026-.48-3.241-.5-3.416-.034-.344-.046-.485-.02-.253-.024-.331-.008-.164-.01-.219,0-.135,0-.259.008-.284.016-.482a7.667,7.667,0,0,0-.022-.907c-.031-.362-.046-.646-.058-.889s-.021-.448-.023-.608.007-.27-.127-5.963-.2-6.43-.271-7-.115-1.028-.151-1.379-.057-.586-.065-.721-.053-.722-.094-1.214-.07-.9-.088-1.217-.028-.541-.029-.673a10.885,10.885,0,0,1,.11-1.247,18.075,18.075,0,0,1,.423-2.029c.2-.764.454-1.618.519-2.114C248.215,973.241,247.782,973.589,248.015,973.138Z" transform="translate(-244.165 -973.138)"/>
    </g>
    <g id="Group_10" data-name="Group 10" transform="translate(-381.03 568.74)">
      <path id="Path_10" data-name="Path 10" d="M215.808,1307.739c.04-.131.113-.427.244-.776a11.762,11.762,0,0,1,.556-1.213c.238-.46.531-.976.837-1.534s.585-1.033.846-1.443a7.937,7.937,0,0,1,.746-1.019,8.317,8.317,0,0,1,.982-.9c.531-.443,1.218-1.269,2.042-2.056s1.749-1.573,2.764-2.383a23.436,23.436,0,0,1,3.066-2.148c.939-.512.939-.512.3-.2,0,0-1.334.518-2.63.99a23.753,23.753,0,0,0-3.59,1.637,16.834,16.834,0,0,0-2.953,2.059,7.8,7.8,0,0,0-1.367,1.424,8.251,8.251,0,0,0-.725,1.3,12.077,12.077,0,0,0-.593,1.6c-.173.586-.363,1.215-.505,1.8a11.288,11.288,0,0,0-.278,1.556,4.1,4.1,0,0,0-.006,1.011C215.583,1307.748,215.8,1307.6,215.808,1307.739Z" transform="translate(-215.512 -1293.847)"/>
    </g>
    <g id="Group_11" data-name="Group 11" transform="translate(-391.03 501.234)">
      <path id="Path_11" data-name="Path 11" d="M137.038,763.995v.032q-.01.266-.018.542.019-.347.028-.495l-.009-.079h0Z" transform="translate(-137.019 -763.995)"/>
    </g>
    <g id="Group_12" data-name="Group 12" transform="translate(-380.948 584.529)">
      <path id="Path_12" data-name="Path 12" d="M216.156,1426.925a10.987,10.987,0,0,0,1.76.164c.626.022,1.152.024,1.58.009s.764-.048,1.366-.118,1.511-.2,2.346-.339,1.6-.291,2.289-.454a11.453,11.453,0,0,0,1.951-.617,19.834,19.834,0,0,0,2.192-1.182c.816-.488,1.7-1.069,2.668-1.731s2-1.428,2.555-1.86a7.244,7.244,0,0,0,.872-.728c.184-.188.444-.468.776-.846a11.458,11.458,0,0,1,1.15-1.181l.134-.112a9.543,9.543,0,0,1-1.037.748c-.5.3-.9.527-1.189.693a4.663,4.663,0,0,1-.536.283c-.069.024-1.324.539-2.459,1.019s-2.161.914-3.078,1.294-1.731.7-2.436.959-1.165.475-1.718.711-1.189.49-1.9.755-1.512.545-2.388.844-1.1.379-1.408.469-.731.209-1.26.345a11.3,11.3,0,0,0-1.507.457C216.136,1426.7,216.548,1426.89,216.156,1426.925Z" transform="translate(-216.156 -1417.773)"/>
    </g>
    <g id="Group_13" data-name="Group 13" transform="translate(-346.475 533.086)">
      <path id="Path_13" data-name="Path 13" d="M487.5,1014a5.147,5.147,0,0,0-.352.73c-.12.288-.226.567-.313.838a1.087,1.087,0,0,0-.057.767,1.968,1.968,0,0,1,.144.587,1.251,1.251,0,0,0,.125.448c.068.116.068.116.065.037a.866.866,0,0,0,.147-.32c.025-.158.056-.32.1-.488s.282-.382.281-.637.007-.525.02-.815.038-.6.027-.762C487.72,1014.061,487.459,1014.158,487.5,1014Z" transform="translate(-486.731 -1014)"/>
    </g>
    <g id="Group_14" data-name="Group 14" transform="translate(-317.367 506.671)">
      <path id="Path_14" data-name="Path 14" d="M724.8,814.966a23.147,23.147,0,0,1,1.5-3.044,5.328,5.328,0,0,1,2.313-2.046,6.273,6.273,0,0,1,3.117-.476,3.851,3.851,0,0,1,2.385.968,3.619,3.619,0,0,1,.935,2.2,12.129,12.129,0,0,1-.2,3.559,17.354,17.354,0,0,1-.726,2.727q-.438,1.225-1.113,2.657a28.527,28.527,0,0,1-1.61,2.972c-.627,1-1.383,2.1-2.069,3.182s-1.334,2.11-1.91,3.115-1.1,1.975-1.709,2.833-1.538,2.014-2.247,3.008-1.256,1.8-1.659,2.416a17.716,17.716,0,0,0-1.289,2.367c-.591,1.242-1.654,3.459-1.753,3.687s-.169.409-.233.586-.122.355-.173.539-.026.126-.346,1.279a23.653,23.653,0,0,0-.707,3.6,27.609,27.609,0,0,0-.177,3.76c.027,1.27.148,2.532.258,3.473s.2,1.7.278,2.3.144,1.041.2,1.375a8.62,8.62,0,0,0,.515,1.6q.563,1.495.937,2.568c.251.716.441,1.289.564,1.709a6.884,6.884,0,0,1,.275,1.469c.1.861.157,1.6.173,2.193a8.821,8.821,0,0,1-.037,1.3,5.934,5.934,0,0,1-.584,1.449,3.013,3.013,0,0,1-1.524,1.729,4.819,4.819,0,0,1-2.293.038c-.86-.13-.86-.13-.345.117a4,4,0,0,0,1.946,1.182,3.527,3.527,0,0,0,3.079-.982,9.4,9.4,0,0,0,1.823-2.424,6.1,6.1,0,0,0,.469-1.591,17.62,17.62,0,0,0,.216-2.254,17.384,17.384,0,0,0-.026-2.374c-.066-.5-.169-1.066-.319-1.761s-.347-1.52-.592-2.478-.538-2.049-.521-2.018a4.807,4.807,0,0,0-.018-.682c-.019-.456-.044-1.092-.069-1.9s-.055-1.771-.037-2.881a23.431,23.431,0,0,1,.259-3.186,22.029,22.029,0,0,1,.671-2.958c.285-.954.664-1.953.7-2.086a1.707,1.707,0,0,1,.082-.229c.026-.06.063-.14.112-.238s.062-.124,1.266-2.26,1.272-2.275,1.478-2.574.634-.862,1.244-1.65,1.393-1.789,2.357-3.132a21.514,21.514,0,0,0,1.976-3.467c.443-.921.947-1.892,1.495-2.918s1.155-2.1,1.844-3.286a31.437,31.437,0,0,0,1.767-3.626c.479-1.146.871-2.242,1.191-3.283a23.229,23.229,0,0,0,.717-2.99,20.644,20.644,0,0,0,.141-4.651,8.3,8.3,0,0,0-1.607-4.446,6.138,6.138,0,0,0-3.763-2.246,8.158,8.158,0,0,0-4.6.538,6.8,6.8,0,0,0-3.17,2.653,6.488,6.488,0,0,0-1.062,3.359C724.58,814.942,724.89,814.162,724.8,814.966Z" transform="translate(-715.203 -806.67)"/>
    </g>
    <g id="Group_15" data-name="Group 15" transform="translate(-356.347 551.773)">
      <path id="Path_15" data-name="Path 15" d="M439.252,1160.67a17.519,17.519,0,0,0-1.735,2.853q-1.183,2.24-2.781,5.891c-1.065,2.435-2.254,5.342-3.229,7.594a51.78,51.78,0,0,1-2.62,5.246c-.862,1.53-1.8,3.125-2.674,4.869s-1.833,3.555-2.46,4.718a22.912,22.912,0,0,1-1.593,2.619c-.6.849-1.391,1.934-2.38,3.246s-2.161,2.861-3.057,3.974a17.222,17.222,0,0,1-2.21,2.329c-.69.609-1.438,1.238-2.251,1.877a18.357,18.357,0,0,1-2.427,1.689c-.739.394-.739.394-.238.149,0,0,1.03-.437,2.055-.8a25.46,25.46,0,0,0,2.881-1.208,21.01,21.01,0,0,0,2.519-1.483,38.575,38.575,0,0,0,3.7-3.374c1.324-1.312,2.418-2.45,3.3-3.409s1.535-1.754,2-2.376,1.669-2.412,2.781-4.157a47.416,47.416,0,0,0,2.957-5.133c.8-1.7,1.519-3.351,2.172-4.978s1.6-5.007,2.389-7.867,1.42-5.258,1.918-7.188.856-3.4.932-4C439.456,1160.766,439.07,1161.059,439.252,1160.67Z" transform="translate(-409.245 -1160.67)"/>
    </g>
    <g id="Group_16" data-name="Group 16" transform="translate(-389.164 486.583)">
      <path id="Path_16" data-name="Path 16" d="M154.624,757.521l.254-1.367q.131-.259.756-7.246.5-6.3.894-14.252.81-16.365.806-28.032,0-5.951-.229-12.841-.113-3.5-.282-7.6-.482-11.157-.628-13.7-.916-16.849-1.684-23.489l-1.34,17.726q-.15,1.757-.672,11.716-.8,17.226-.833,26.936,0,10.022.773,25.682.506,8.573.653,9.712l.254,2.66q.171,2.538.643,7.554.278,2.647.582,4.536.067,1.214.051,2" transform="translate(-151.666 -648.995)" fill="rgba(34,0,255,0.4)"/>
    </g>
    <g id="Group_18" data-name="Group 18" transform="translate(-334.948 531.34)">
      <path id="Path_18" data-name="Path 18" d="M577.21,1000.29a9.856,9.856,0,0,0,1.839,2.334c.148.136.3.276.442.42s.286.288.423.436a2.216,2.216,0,0,1,.346.508c.1.192.1.192.033.064,0,0-.132-.257-.224-.434s-.177-.363-.267-.548-.184-.371-.283-.557a3.985,3.985,0,0,0-.872-1.023C577.38,1000.143,577.813,1000.988,577.21,1000.29Z" transform="translate(-577.21 -1000.29)"/>
    </g>
    <g id="Group_19" data-name="Group 19" transform="translate(-335.417 531.533)">
      <path id="Path_19" data-name="Path 19" d="M573.523,1001.81a9.283,9.283,0,0,0,.521,1c.2.346.361.632.49.859s.222.392.318.541.177.269.5.182a.429.429,0,0,1,.535.158c.106.125.215.256.573.747s.965,1.34.99,1.37a.761.761,0,0,0,.1.1c.044.036.1.074.141.1l.015.01s-.059-.041-.109-.078a1.105,1.105,0,0,1-.121-.1c-.031-.032-.052-.06-.658-.908s-.717-.982-.825-1.111a.463.463,0,0,1-.082-.576c.131-.325.013-.428-.09-.512a4.4,4.4,0,0,1-.351-.336c-.159-.162-.368-.363-.628-.606a6.549,6.549,0,0,0-.783-.654C573.7,1001.669,573.682,1002.006,573.523,1001.81Z" transform="translate(-573.523 -1001.81)"/>
    </g>
    <g id="Group_20" data-name="Group 20" transform="translate(-346.666 532.031)">
      <path id="Path_20" data-name="Path 20" d="M485.71,1005.72c-.112.087-.117.114-.122.139s-.011.061-.02.111-.02.113-.032.189-.025.161-.039.256-.03.2-.046.32-.034.246-.072.542-.086.708-.121,1.061-.062.645.242.861.313.385.318.465.007.113.01.144,0,.057.006.083,0,.048.054.545.146,1.472.15,1.5.01.069.018.107,0,.084.018.113.019.029.013.008a.155.155,0,0,0-.012-.085.326.326,0,0,1-.033-.109c-.005-.035-.009-.066-.105-1.04s-.1-.995-.1-1.019,0-.05-.006-.078,0-.06-.006-.093-.01-.161-.02-.349.568-.46.515-.766-.116-.674-.2-1.1-.105-.562-.129-.685-.045-.234-.063-.336-.035-.191-.049-.27-.025-.149-.035-.208-.016-.1-.02-.132-.007-.045-.064,0S485.709,1005.72,485.71,1005.72Z" transform="translate(-485.237 -1005.72)"/>
    </g>
    <g id="Group_21" data-name="Group 21" transform="translate(-347 533.153)">
      <path id="Path_21" data-name="Path 21" d="M483.116,1014.52a3.34,3.34,0,0,0-.112.4q-.064.266-.138.592c-.049.219-.1.459-.132.617s-.04.209-.048.252-.014.076-.018.1-.007.045-.015.1-.022.147-.034.233-.025.171.229.257.252.163.249.252-.006.2-.01.317-.008.243-.013.377-.011.276-.014.368,0,.127-.005.162-.051.066-.044.1.012.064.02.118a1.571,1.571,0,0,1,.022.194c0,.068,0,.13.009.186s.011.108.018.153a1.164,1.164,0,0,0,.027.122.87.87,0,0,0,.037.107.883.883,0,0,0,.042.089l0,.008s-.017-.03-.032-.062a.907.907,0,0,1-.04-.1,1.11,1.11,0,0,1-.03-.116c-.008-.04-.015-.088-.021-.14s-.01-.112-.012-.176a.988.988,0,0,1,.008-.208c.012-.075.018-.106.023-.138a.115.115,0,0,0-.008-.1.156.156,0,0,1-.022-.1c0-.034.007-.183.012-.322s.01-.271.014-.395.008-.238.011-.344.005-.182.007-.261.513-.154.5-.243-.022-.18-.035-.275-.015-.1-.017-.112-.006-.041-.01-.076-.009-.08-.015-.134-.032-.308-.057-.543-.048-.447-.067-.64-.033-.364-.051-.443C483.339,1014.542,483.109,1014.591,483.116,1014.52Z" transform="translate(-482.614 -1014.52)"/>
    </g>
    <g id="Group_22" data-name="Group 22" transform="translate(-358.781 530.879)">
      <path id="Path_22" data-name="Path 22" d="M392.54,996.677a10.47,10.47,0,0,0-.793,1.258c-.268.473-.493.9-.685,1.268a1.972,1.972,0,0,0-.22,1.47,5.866,5.866,0,0,1-.23,2.063c-.053.24-.116.511-.19.812s-.158.634-.227.9l-.023.088s.091-.353.172-.675.151-.613.211-.874a3.669,3.669,0,0,1,.758-1.429,3.72,3.72,0,0,0,.787-1.57q.116-.535.28-1.261a9.653,9.653,0,0,0,.239-1.352C392.749,996.759,392.423,996.976,392.54,996.677Z" transform="translate(-390.141 -996.677)"/>
    </g>
    <g id="Group_23" data-name="Group 23" transform="translate(-368.063 530.491)">
      <path id="Path_23" data-name="Path 23" d="M322.353,993.626a3.244,3.244,0,0,0-.523.205q-.339.156-.758.38c-.279.15-.583.325-.94.555a2.591,2.591,0,0,0-.954.894,7.418,7.418,0,0,1-.76,1.08c-.263.333-.518.66-.675.828s-.2.212-.234.257a1.48,1.48,0,0,0-.108.149c-.034.054-.066.112-.089.157s-.023.045-.008.015c0,0,.031-.06.064-.116a1.513,1.513,0,0,1,.1-.158,1.336,1.336,0,0,1,.115-.134,7.308,7.308,0,0,1,.707-.519c.349-.228.708-.46,1.071-.7s.859-.345,1.152-.684.534-.6.76-.838.43-.452.616-.636.352-.337.421-.417C322.463,993.822,322.272,993.671,322.353,993.626Z" transform="translate(-317.293 -993.626)"/>
    </g>
    <g id="Group_24" data-name="Group 24" transform="translate(-335.405 530.634)">
      <path id="Path_24" data-name="Path 24" d="M573.622,994.751a4.063,4.063,0,0,0,.159.659c.093.316.218.706.384,1.166a4.609,4.609,0,0,0,.862,1.177,5.716,5.716,0,0,0,.533.605c.15.145.317.293.49.459s.347.353.488.5.14.144.047.048c0,0-.187-.192-.355-.377a2.945,2.945,0,0,1-.394-.572,5.59,5.59,0,0,1-.257-.524c-.067-.161-.281-.741-.481-1.238a5.139,5.139,0,0,0-.69-1.163c-.221-.3-.386-.543-.464-.635C573.833,994.672,573.655,994.839,573.622,994.751Z" transform="translate(-573.622 -994.751)"/>
    </g>
    <g id="Group_25" data-name="Group 25" transform="translate(-346.171 531.927)">
      <path id="Path_25" data-name="Path 25" d="M489.772,1004.9c-.138.051-.156.1-.166.138s-.022.094-.038.169-.036.171-.049.234-.019.1-.029.15-.023.125-.04.219l-.052.292c-.015.084-.024.138-.036.209s-.028.164-.045.275-.037.241-.06.392-.045.3-.062.437-.032.254-.045.358-.023.194-.029.252-.012.124.106.22a.617.617,0,0,1,.177.405c.033.175.073.386.1.527s.038.186.047.231l.024.129.02.111.011.065.009.055c0,.017.006.034.01.066s.012.08.019.129.014.094.021.14.014.09.019.124l.015.093.018.106.02.113a.3.3,0,0,1,.007.056c0,.013,0,.025,0,.038s0,.027,0,.037,0,.02,0,.034,0,.033,0,.055,0,.048-.01.143-.022.256-.023.275,0,.028,0,.037,0,.015,0,.024,0,.015,0,.023,0,.015,0,.023,0,.015,0,.022,0,.014,0,.02,0,.005,0,0v-.014c0-.008,0-.014,0-.022s0-.015,0-.023,0-.015,0-.023,0-.017,0-.024,0-.016,0-.031,0-.033.015-.2.016-.188.017-.214,0-.045,0-.061,0-.031,0-.039,0-.022,0-.036,0-.025,0-.038a.272.272,0,0,1,0-.039c0-.014.009-.06.016-.1s.013-.08.018-.115.01-.064.015-.088l.02-.115.024-.136.026-.141c.009-.048.012-.066.015-.084s.006-.036.009-.055l.009-.057c0-.019.009-.059.015-.1s.012-.085.019-.13.012-.092.019-.14.035-.289.056-.491.039-.363.053-.488.222-.218.214-.262-.019-.117-.032-.206-.028-.195-.045-.317-.035-.26-.058-.413-.043-.3-.061-.42-.033-.228-.047-.313L490,1006.2c-.007-.046-.027-.173-.043-.282s-.029-.194-.039-.26-.016-.11-.02-.134-.017-.132-.028-.222-.018-.155-.023-.2-.007-.065-.081-.028S489.771,1004.9,489.772,1004.9Z" transform="translate(-489.119 -1004.9)"/>
    </g>
    <g id="Group_26" data-name="Group 26" transform="translate(-347.023 533.207)">
      <path id="Path_26" data-name="Path 26" d="M483.11,1014.95a1.117,1.117,0,0,0-.1.234c-.039.115-.08.26-.125.437s-.093.385-.13.555-.062.292-.087.426-.051.279-.078.437-.053.329-.073.469-.032.231-.042.318-.019.168-.026.245-.012.149-.018.276a.949.949,0,0,0,.133.573,3.734,3.734,0,0,1,.326.841c.1.324.217.689.413,1.236s.38,1.256.39,1.291a.5.5,0,0,0,.036.1.555.555,0,0,0,.047.079l0,.006s-.02-.027-.036-.055a.52.52,0,0,1-.042-.093,5.909,5.909,0,0,1-.076-.8c-.057-.734-.057-1.144-.059-1.51s0-.685,0-.957.163-.512.123-.682-.051-.215-.062-.275-.023-.129-.035-.2-.023-.157-.035-.243-.032-.262-.052-.427-.038-.317-.055-.456-.03-.266-.044-.382-.039-.343-.057-.539-.03-.358-.034-.489,0-.228-.007-.262C483.32,1015.029,483.1,1014.979,483.11,1014.95Z" transform="translate(-482.43 -1014.95)"/>
    </g>
    <g id="Group_27" data-name="Group 27" transform="translate(-346.473 533.335)">
      <path id="Path_27" data-name="Path 27" d="M487.576,1015.95a2.557,2.557,0,0,0-.126.322q-.065.191-.12.367c-.037.117-.07.231-.086.279s-.03.106-.057.212-.069.273-.123.5-.121.52-.177.8-.1.507-.133.739.174.475.209.72.075.5.106.68.051.29.071.387.04.182.058.257.036.143.064.246.067.25.1.375.067.232.1.318.054.154.074.232a2.539,2.539,0,0,0,.079.251.941.941,0,0,0,.112.213.748.748,0,0,0,.132.141c.04.032.04.032.013.01a.882.882,0,0,1-.1-.1.785.785,0,0,1-.124-.191,1.334,1.334,0,0,1-.089-.255.894.894,0,0,1-.032-.232c0-.078,0-.173.006-.289s.013-.25.024-.405.013-.215.018-.28.012-.141.022-.228.022-.183.034-.291.045-.358.081-.6a2.722,2.722,0,0,1,.169-.7,1.294,1.294,0,0,0,.057-.656c-.018-.211-.036-.545-.053-.822s-.031-.488-.042-.636-.017-.229-.018-.247-.006-.131-.01-.246-.006-.236-.007-.362a3.15,3.15,0,0,0-.01-.331C487.8,1015.992,487.563,1016.019,487.576,1015.95Z" transform="translate(-486.749 -1015.95)"/>
    </g>
    <g id="Group_28" data-name="Group 28" transform="translate(-326.082 566.681)">
      <path id="Path_28" data-name="Path 28" d="M647.191,1277.68a2.886,2.886,0,0,0-.289.929,8.48,8.48,0,0,0-.1,1.6,9.345,9.345,0,0,0,.227,2.019,6.088,6.088,0,0,0,.567,1.52,12.4,12.4,0,0,0,.7,1.169,4.215,4.215,0,0,0,.995.9,5.568,5.568,0,0,0,1.09.666,4.9,4.9,0,0,0,1.151.372,6.011,6.011,0,0,0,1.115.106c.323,0,.6-.005.861-.023s.514-.047.754-.087a4.25,4.25,0,0,0,.665-.158c.2-.068.343-.133.486-.189s.284-.106.423-.148a3.633,3.633,0,0,1,.412-.1,3.336,3.336,0,0,0,.349-.079.816.816,0,0,0,.211-.087.142.142,0,0,0,.071-.083V1286a.128.128,0,0,1-.035.061.435.435,0,0,1-.162.088,2.431,2.431,0,0,1-.308.083,1.566,1.566,0,0,1-.41.009c-.145-.01-.3-.013-.452-.009s-.319.014-.477.028a3.221,3.221,0,0,1-.57-.019q-.322-.033-.665-.1c-.229-.045-.465-.1-.715-.171a8.512,8.512,0,0,1-.873-.268,4.428,4.428,0,0,1-1.5-.97,6.157,6.157,0,0,1-.64-.784c-.215-.3-.477-.573-.726-.87s-.494-.614-.713-.9a6.351,6.351,0,0,1-.638-1.538,16.2,16.2,0,0,1-.444-1.6c-.1-.452-.138-.827-.164-.99C647.4,1277.749,647.146,1277.82,647.191,1277.68Z" transform="translate(-646.795 -1277.68)"/>
    </g>
    <g id="Group_29" data-name="Group 29" transform="translate(-390.358 462.869)">
      <path id="Path_29" data-name="Path 29" d="M142.295,482.09a18.909,18.909,0,0,0,4.465.494,24.608,24.608,0,0,0,4.246-.271,14.15,14.15,0,0,0,2.919-.8c.691-.28,1.3-.531,1.865-.772s1.084-.482,1.56-.716a14.265,14.265,0,0,0,2.223-1.411c1.314-.939,3.226-2.319,4.835-3.445s2.91-2,3.887-2.6a16.081,16.081,0,0,1,2.22-1.184c.638-.273,1.322-.571,2.01-.841s1.384-.5,2.08-.716a23.507,23.507,0,0,1,2.789-.678,36.049,36.049,0,0,1,5.374-.583,26.8,26.8,0,0,1,5.476.37,48.214,48.214,0,0,1,4.89,1.237,13.966,13.966,0,0,1,4.263,1.967,41.156,41.156,0,0,1,5.622,4.734c2.177,2.116,4.616,4.766,6.212,6.689a28.519,28.519,0,0,1,2.833,3.9c.572.955,1.051,1.84,1.454,2.646a24.789,24.789,0,0,1,1.127,2.627c.407,1.093.94,2.616,1.448,4.24s1,3.349,1.481,5.17.972,3.741,1.3,4.922a9.784,9.784,0,0,0,.662,1.914c.185.384.4.8.664,1.256a12.451,12.451,0,0,1,.7,1.367l.056.138a8.474,8.474,0,0,1-.35-1.088c-.126-.536-.217-1.028-.295-1.467s-.133-.828-.166-1.144-.052-2.374-.182-4.353-.337-3.87-.614-5.672-.614-3.517-1-5.135-.617-2.45-.931-3.372-.708-1.9-1.183-2.948-1.034-2.15-1.728-3.412a68.848,68.848,0,0,0-5.472-7.348,60.054,60.054,0,0,0-6.449-6.768,20.786,20.786,0,0,0-5.647-3.711,33.1,33.1,0,0,0-5.638-1.842,29.405,29.405,0,0,0-6.574-.609,35.913,35.913,0,0,0-6.905.829,31.668,31.668,0,0,0-4.048,1.057q-1.217.418-2.4.948c-.785.353-1.561.731-2.283,1.125s-1.324.683-2.258,1.292a42.352,42.352,0,0,0-3.445,2.587c-1.377,1.122-3,2.524-4.867,4.192a26.8,26.8,0,0,1-2.409,2.057c-.344.241-.742.5-1.2.772s-.962.562-1.545.876a19.721,19.721,0,0,1-2.036,1.052,20.551,20.551,0,0,1-3.273.964c-1.363.3-2.986.592-3.878.909C142.292,481.865,143.283,482.076,142.295,482.09Z" transform="translate(-142.295 -462.869)"/>
    </g>
    <g id="Group_30" data-name="Group 30" transform="translate(-368.131 469.458)">
      <path id="Path_30" data-name="Path 30" d="M316.754,524.38a45.57,45.57,0,0,0,6.594-2.484q3.357-1.465,5.384-2.269a12.96,12.96,0,0,1,3.1-.923,25,25,0,0,1,3.474-.16,29.254,29.254,0,0,1,3.911.349,30.765,30.765,0,0,1,3.433.733,9.492,9.492,0,0,1,2.212.958c.869.48,2.027,1.181,3.516,2a51.858,51.858,0,0,1,4.968,2.986,50.435,50.435,0,0,1,4.453,3.63c1.215,1.082,2.1,1.884,2.619,2.386a4.285,4.285,0,0,1,.809.875c.227.338.533.742.8,1.112s.492.712.676,1.017a7.917,7.917,0,0,1,.714,1.647c.386,1.074,1.088,2.965,1.789,4.659a41.17,41.17,0,0,0,2.128,4.466c.722,1.28,1.437,2.349,1.856,3.1s.419.752.159.242a17.2,17.2,0,0,1-.8-2.337c-.334-1.287-.674-2.747-1.042-4.38s-.762-3.446-1.167-5.461a16.417,16.417,0,0,0-.726-2.914,13.738,13.738,0,0,0-.605-1.3c-.237-.453-.509-.93-.774-1.366a7.836,7.836,0,0,0-.684-1.092c-.429-.566-1.063-1.311-1.994-2.332s-2.167-2.326-3.789-4a31.613,31.613,0,0,0-5.364-4.164,42.454,42.454,0,0,0-4.3-2.531,24.159,24.159,0,0,0-3.024-1.286,23.461,23.461,0,0,0-3.875-.738,30.041,30.041,0,0,0-8.983.256,12.053,12.053,0,0,0-3.516,1.111c-1.142.556-2.625,1.378-4.461,2.507a34.025,34.025,0,0,0-5.11,3.643C316.643,524.184,318.165,523.583,316.754,524.38Z" transform="translate(-316.754 -514.584)" fill="rgba(34,0,255,0.4)"/>
    </g>
    <g id="Group_31" data-name="Group 31" transform="translate(-369.54 516.284)">
      <path id="Path_31" data-name="Path 31" d="M305.7,893.61c.326-.032.987-.161,1.72-.26s1.542-.165,2.427-.211,1.853-.068,2.54-.046a14.255,14.255,0,0,1,1.563.126c.444.059.9.132,1.372.212a14,14,0,0,1,1.535.338c.58.164,1.278.367,1.844.526s1.007.269,1.346.342.715.1.806.126.525.09,1.011.143,1.025.1,1.62.13,1.247.061,2.171.057,2.066-.064,3.292-.168a27.045,27.045,0,0,0,3.87-.764c1.366-.328,2.808-.717,4.079-1.126a21.559,21.559,0,0,0,3.289-1.318c1.05-.53,1.914-.963,2.614-1.318s1.238-.623,1.608-.794.592-.264.742-.334a3.126,3.126,0,0,0,.448-.256c.149-.1.306-.219.472-.353a7.934,7.934,0,0,0,1.3-1.476c.829-1.086,1.5-2.039,2.027-2.849s.926-1.476,1.173-1.886.246-.41.05-.163c0,0-.489.415-1.12.955s-1.414,1.2-2.339,1.986-1.972,1.695-2.084,1.737-.263.118-.389.176a2.534,2.534,0,0,1-.285.114c-.061.018-.088.02-.411.106s-.81.24-1.461.445-1.464.478-2.443.819-2.067.724-2.918.95-2.289.468-3.685.678-2.7.378-3.9.532-2.3.347-3.3.487-1.6.182-2.193.213-1.122.05-1.587.056-.862,0-1.246-.013-.6,0-.633,0-.331-.033-.786-.1-1.06-.164-1.836-.289a17.229,17.229,0,0,0-1.911-.2c-.528-.027-1.042-.041-1.542-.033s-.986.028-1.484.063a24.073,24.073,0,0,0-5.142,1.234,8.186,8.186,0,0,0-1.743.854C305.6,893.405,305.986,893.48,305.7,893.61Z" transform="translate(-305.697 -882.118)" fill="rgba(34,0,255,0.4)"/>
    </g>
    <g id="Group_32" data-name="Group 32" transform="translate(-324.565 557.402)">
      <path id="Path_32" data-name="Path 32" d="M661.193,1204.85a5.765,5.765,0,0,0-.716.567,7.772,7.772,0,0,0-.6.582,3.685,3.685,0,0,0-.341.437,3.132,3.132,0,0,0-.215.4q-.106.237-.207.541a4.783,4.783,0,0,0-.2.842c-.064.409-.119.87-.157,1.28s-.058.77-.057,1.082a6.315,6.315,0,0,0,.081,1c.061.41.156.916.253,1.367s.2.845.3,1.191a2.95,2.95,0,0,0,.422.921c.2.274.446.635.726.971a7.4,7.4,0,0,0,.93.931,11.947,11.947,0,0,0,2.177,1.34c1.473.8,4.06,2.036,4.164,2.08a3.783,3.783,0,0,0,.407.145,4.994,4.994,0,0,1,.516.177c.153.068.153.068.051.023a2.741,2.741,0,0,1-.365-.2c-.16-.108-.289-.2-.386-.284s-.166-.147-2.307-2.04a33.937,33.937,0,0,1-2.612-2.4,7.037,7.037,0,0,1-.613-.8,3.465,3.465,0,0,1-.429-.857,3.21,3.21,0,0,0-.3-.665c-.106-.2-.236-.474-.381-.819s-.3-.758-.479-1.229a5.178,5.178,0,0,1-.258-.782c-.043-.2-.086-.475-.132-.815s-.094-.743-.137-1.194a5.664,5.664,0,0,1-.035-.833c.007-.2.018-.373.034-.513a2.064,2.064,0,0,1,.06-.338,3.561,3.561,0,0,1,.113-.344,5.718,5.718,0,0,1,.285-.578c.132-.242.3-.531.371-.711C661.361,1205,661.059,1205,661.193,1204.85Z" transform="translate(-658.702 -1204.85)" fill="rgba(34,0,255,0.4)"/>
    </g>
    <g id="Group_33" data-name="Group 33" transform="translate(-383.043 603.004)">
      <path id="Path_33" data-name="Path 33" d="M199.712,1533.461a15.466,15.466,0,0,0,2.708,1.268,22.17,22.17,0,0,0,2.446.8,7.7,7.7,0,0,0,1.585.243c.394.01.817.018,1.23.018s.817-.006,1.212-.023a21.946,21.946,0,0,0,2.3-.264c1.52-.218,4.13-.625,5.519-1s2.548-.771,3.522-1.125,1.764-.667,2.381-.934,1.143-.542,4.715-3.3,3.572-2.762.982-1.294c0,0-5.8,1.818-6.183,1.93s-1.014.284-1.854.485-1.88.439-3.117.706-2.587.708-5.084,1.423-2.767.779-3.114.849-.707.14-1.08.206-.758.127-1.166.185a6.845,6.845,0,0,1-1.083.112,19.068,19.068,0,0,1-1.963-.152,19.332,19.332,0,0,0-2.6-.2C199.774,1533.245,200.364,1533.647,199.712,1533.461Z" transform="translate(-199.712 -1526.874)" fill="rgba(34,0,255,0.4)"/>
    </g>
  </g>
</svg>
